<svg xmlns="http://www.w3.org/2000/svg" viewBox="0 0 1200 900" fill="none" role="img">
  <defs>
    <linearGradient id="pc-bg" x1="0" y1="0" x2="1200" y2="900" gradientUnits="userSpaceOnUse">
      <stop offset="0" stop-color="#120a1f"/>
      <stop offset="1" stop-color="#190b29"/>
    </linearGradient>
    <linearGradient id="pc-brand" x1="0" y1="0" x2="1" y2="1">
      <stop offset="0" stop-color="#7c3aed"/>
      <stop offset="0.5" stop-color="#9333ea"/>
      <stop offset="1" stop-color="#c026d3"/>
    </linearGradient>
    <linearGradient id="pc-prod1" x1="0" y1="0" x2="1" y2="1">
      <stop offset="0" stop-color="#a855f7"/>
      <stop offset="1" stop-color="#6d28d9"/>
    </linearGradient>
    <linearGradient id="pc-prod2" x1="0" y1="0" x2="1" y2="1">
      <stop offset="0" stop-color="#e879f9"/>
      <stop offset="1" stop-color="#a21caf"/>
    </linearGradient>
    <linearGradient id="pc-prod3" x1="0" y1="0" x2="1" y2="1">
      <stop offset="0" stop-color="#818cf8"/>
      <stop offset="1" stop-color="#7c3aed"/>
    </linearGradient>
    <filter id="pc-blur" x="-50%" y="-50%" width="200%" height="200%">
      <feGaussianBlur stdDeviation="65"/>
    </filter>
  </defs>

  <rect width="1200" height="900" fill="url(#pc-bg)"/>
  <circle cx="240" cy="180" r="200" fill="#9333ea" opacity="0.28" filter="url(#pc-blur)"/>
  <circle cx="1000" cy="780" r="200" fill="#c026d3" opacity="0.24" filter="url(#pc-blur)"/>

  <!-- Top nav -->
  <rect x="40" y="48" width="40" height="40" rx="12" fill="url(#pc-brand)"/>
  <rect x="92" y="60" width="80" height="14" rx="7" fill="#ffffff" fill-opacity="0.8"/>
  <rect x="320" y="62" width="56" height="11" rx="5.5" fill="#ffffff" fill-opacity="0.4"/>
  <rect x="400" y="62" width="56" height="11" rx="5.5" fill="#ffffff" fill-opacity="0.4"/>
  <rect x="480" y="62" width="56" height="11" rx="5.5" fill="#ffffff" fill-opacity="0.4"/>
  <circle cx="1010" cy="68" r="16" fill="#ffffff" fill-opacity="0.08"/>
  <rect x="1042" y="50" width="118" height="36" rx="18" fill="url(#pc-brand)"/>
  <rect x="1066" y="62" width="70" height="12" rx="6" fill="#ffffff" fill-opacity="0.9"/>
  <circle cx="1016" cy="60" r="9" fill="#e879f9"/>

  <!-- Hero banner -->
  <rect x="40" y="120" width="760" height="170" rx="24" fill="url(#pc-brand)"/>
  <rect x="40" y="120" width="760" height="170" rx="24" fill="#000000" fill-opacity="0.05"/>
  <rect x="72" y="156" width="100" height="12" rx="6" fill="#ffffff" fill-opacity="0.7"/>
  <text x="72" y="216" font-family="Arial, sans-serif" font-size="42" font-weight="800" fill="#ffffff">Summer Drop</text>
  <rect x="72" y="236" width="240" height="12" rx="6" fill="#ffffff" fill-opacity="0.6"/>
  <rect x="72" y="262" width="120" height="34" rx="17" fill="#ffffff"/>
  <rect x="92" y="273" width="80" height="12" rx="6" fill="#7c3aed"/>
  <circle cx="700" cy="205" r="78" fill="#ffffff" fill-opacity="0.12"/>
  <circle cx="700" cy="205" r="48" fill="#ffffff" fill-opacity="0.16"/>

  <!-- Filter chips -->
  <rect x="40" y="318" width="78" height="32" rx="16" fill="url(#pc-brand)" fill-opacity="0.3" stroke="#c084fc" stroke-opacity="0.5"/>
  <rect x="58" y="329" width="44" height="10" rx="5" fill="#e9d5ff"/>
  <rect x="130" y="318" width="78" height="32" rx="16" fill="#ffffff" fill-opacity="0.05"/>
  <rect x="148" y="329" width="44" height="10" rx="5" fill="#ffffff" fill-opacity="0.35"/>
  <rect x="220" y="318" width="78" height="32" rx="16" fill="#ffffff" fill-opacity="0.05"/>
  <rect x="238" y="329" width="44" height="10" rx="5" fill="#ffffff" fill-opacity="0.35"/>

  <!-- Product grid -->
  <g>
    <rect x="40" y="378" width="240" height="300" rx="22" fill="#ffffff" fill-opacity="0.045" stroke="#ffffff" stroke-opacity="0.08"/>
    <rect x="60" y="398" width="200" height="180" rx="16" fill="url(#pc-prod1)"/>
    <circle cx="248" cy="416" r="14" fill="#ffffff" fill-opacity="0.85"/>
    <rect x="60" y="600" width="140" height="12" rx="6" fill="#ffffff" fill-opacity="0.7"/>
    <rect x="60" y="624" width="80" height="10" rx="5" fill="#ffffff" fill-opacity="0.35"/>
    <text x="60" y="664" font-family="Arial, sans-serif" font-size="22" font-weight="800" fill="#ffffff">$89</text>
  </g>
  <g>
    <rect x="300" y="378" width="240" height="300" rx="22" fill="#ffffff" fill-opacity="0.045" stroke="#ffffff" stroke-opacity="0.08"/>
    <rect x="320" y="398" width="200" height="180" rx="16" fill="url(#pc-prod2)"/>
    <circle cx="508" cy="416" r="14" fill="#ffffff" fill-opacity="0.4"/>
    <rect x="320" y="600" width="120" height="12" rx="6" fill="#ffffff" fill-opacity="0.7"/>
    <rect x="320" y="624" width="80" height="10" rx="5" fill="#ffffff" fill-opacity="0.35"/>
    <text x="320" y="664" font-family="Arial, sans-serif" font-size="22" font-weight="800" fill="#ffffff">$124</text>
  </g>
  <g>
    <rect x="560" y="378" width="240" height="300" rx="22" fill="#ffffff" fill-opacity="0.045" stroke="#ffffff" stroke-opacity="0.08"/>
    <rect x="580" y="398" width="200" height="180" rx="16" fill="url(#pc-prod3)"/>
    <circle cx="768" cy="416" r="14" fill="#ffffff" fill-opacity="0.4"/>
    <rect x="580" y="600" width="150" height="12" rx="6" fill="#ffffff" fill-opacity="0.7"/>
    <rect x="580" y="624" width="80" height="10" rx="5" fill="#ffffff" fill-opacity="0.35"/>
    <text x="580" y="664" font-family="Arial, sans-serif" font-size="22" font-weight="800" fill="#ffffff">$56</text>
  </g>

  <!-- Cart / checkout panel -->
  <rect x="840" y="120" width="320" height="700" rx="24" fill="#ffffff" fill-opacity="0.05" stroke="#ffffff" stroke-opacity="0.1"/>
  <rect x="872" y="152" width="120" height="14" rx="7" fill="#ffffff" fill-opacity="0.8"/>
  <rect x="1108" y="148" width="24" height="22" rx="8" fill="url(#pc-brand)" fill-opacity="0.5"/>

  <g>
    <rect x="872" y="200" width="256" height="80" rx="16" fill="#ffffff" fill-opacity="0.04"/>
    <rect x="888" y="216" width="48" height="48" rx="12" fill="url(#pc-prod1)"/>
    <rect x="952" y="222" width="120" height="11" rx="5.5" fill="#ffffff" fill-opacity="0.6"/>
    <rect x="952" y="242" width="60" height="9" rx="4.5" fill="#ffffff" fill-opacity="0.3"/>
    <rect x="1052" y="244" width="44" height="11" rx="5.5" fill="#ffffff" fill-opacity="0.7"/>
  </g>
  <g>
    <rect x="872" y="292" width="256" height="80" rx="16" fill="#ffffff" fill-opacity="0.04"/>
    <rect x="888" y="308" width="48" height="48" rx="12" fill="url(#pc-prod2)"/>
    <rect x="952" y="314" width="110" height="11" rx="5.5" fill="#ffffff" fill-opacity="0.6"/>
    <rect x="952" y="334" width="60" height="9" rx="4.5" fill="#ffffff" fill-opacity="0.3"/>
    <rect x="1052" y="336" width="44" height="11" rx="5.5" fill="#ffffff" fill-opacity="0.7"/>
  </g>
  <g>
    <rect x="872" y="384" width="256" height="80" rx="16" fill="#ffffff" fill-opacity="0.04"/>
    <rect x="888" y="400" width="48" height="48" rx="12" fill="url(#pc-prod3)"/>
    <rect x="952" y="406" width="116" height="11" rx="5.5" fill="#ffffff" fill-opacity="0.6"/>
    <rect x="952" y="426" width="60" height="9" rx="4.5" fill="#ffffff" fill-opacity="0.3"/>
    <rect x="1052" y="428" width="44" height="11" rx="5.5" fill="#ffffff" fill-opacity="0.7"/>
  </g>

  <!-- Summary -->
  <rect x="872" y="508" width="256" height="1" fill="#ffffff" fill-opacity="0.1"/>
  <rect x="872" y="536" width="80" height="10" rx="5" fill="#ffffff" fill-opacity="0.35"/>
  <rect x="1048" y="536" width="48" height="10" rx="5" fill="#ffffff" fill-opacity="0.5"/>
  <rect x="872" y="568" width="80" height="10" rx="5" fill="#ffffff" fill-opacity="0.35"/>
  <rect x="1048" y="568" width="48" height="10" rx="5" fill="#ffffff" fill-opacity="0.5"/>
  <rect x="872" y="608" width="100" height="13" rx="6.5" fill="#ffffff" fill-opacity="0.75"/>
  <text x="1036" y="623" font-family="Arial, sans-serif" font-size="22" font-weight="800" fill="#ffffff">$269</text>

  <!-- Checkout button -->
  <rect x="872" y="664" width="256" height="56" rx="16" fill="url(#pc-brand)"/>
  <rect x="940" y="685" width="120" height="14" rx="7" fill="#ffffff" fill-opacity="0.95"/>
  <rect x="872" y="736" width="256" height="48" rx="14" fill="#ffffff" fill-opacity="0.05"/>
  <rect x="956" y="754" width="88" height="12" rx="6" fill="#ffffff" fill-opacity="0.45"/>
</svg>
