<?xml version="1.0" encoding="UTF-8"?>
<svg id="Layer_1" data-name="Layer 1" xmlns="http://www.w3.org/2000/svg" xmlns:xlink="http://www.w3.org/1999/xlink" viewBox="0 0 1135 305">
  <defs>
    <style>
      .cls-1 {
        fill: url(#linear-gradient-2);
      }

      .cls-2 {
        fill: #fff;
      }

      .cls-3 {
        fill: #1b7dff;
      }

      .cls-4 {
        fill: #5824c7;
      }

      .cls-5 {
        isolation: isolate;
      }

      .cls-6 {
        fill: #75b0e8;
      }

      .cls-7 {
        fill: url(#linear-gradient-3);
      }

      .cls-8 {
        fill: url(#linear-gradient);
      }

      .cls-9 {
        fill: #7734e4;
      }
    </style>
    <linearGradient id="linear-gradient" x1="154.01" y1="185.91" x2="200.17" y2="114.71" gradientUnits="userSpaceOnUse">
      <stop offset=".13" stop-color="#1e7bfe"/>
      <stop offset="1" stop-color="#8133f2"/>
    </linearGradient>
    <linearGradient id="linear-gradient-2" x1="100.83" y1="81.73" x2="213.18" y2="255.41" gradientUnits="userSpaceOnUse">
      <stop offset=".53" stop-color="#1e7bfe" stop-opacity="0"/>
      <stop offset="1" stop-color="#4a2fde"/>
    </linearGradient>
    <linearGradient id="linear-gradient-3" x1="77.53" y1="1761.36" x2="87.72" y2="1761.36" gradientTransform="translate(0 1888.31) scale(1 -1)" gradientUnits="userSpaceOnUse">
      <stop offset="0" stop-color="#6c2df7"/>
      <stop offset="1" stop-color="#8133f2"/>
    </linearGradient>
  </defs>
  <rect class="cls-3" x="54.77" y="34.1" width="12.6" height="13.2"/>
  <polygon class="cls-9" points="336.47 62.1 238.47 227.8 235.87 227.8 232.57 222 201.87 168.2 215.57 144.4 256.87 73.1 336.47 62.1"/>
  <polygon class="cls-4" points="234.17 223.1 232.57 222 201.87 168.2 215.57 144.4 216.37 144.9 234.17 223.1"/>
  <path class="cls-8" d="m222.47,221.5l-88.4-149.3h-16.8v7.7h-8.4l-1,10.8h21.2v22.1h-21.2v-22.1l-6.2,22.1v15.1h14.6v13.9h-14.6l69.2,114.9,41.9,14.2,25.7-43.1-16-6.3Zm-89.6-133.2h-9.3v-9.7h9.3v9.7Z"/>
  <polygon class="cls-1" points="222.47 221.5 184.65 157.63 111.2 157.63 170.87 256.7 212.77 270.9 238.47 227.8 222.47 221.5"/>
  <rect class="cls-6" x="38.97" y="69.2" width="10.2" height="10.7"/>
  <rect class="cls-7" x="77.57" y="121.6" width="10.2" height="10.7"/>
  <rect class="cls-3" x="57.77" y="80.3" width="19.8" height="20.7"/>
  <rect class="cls-3" x="87.77" y="90.7" width="21.2" height="22.2"/>
  <polygon class="cls-3" points="108.87 65.3 108.87 72.2 86.77 72.2 86.77 57.2 101.77 57.2 101.77 65.3 108.87 65.3"/>
  <g>
    <g>
      <g class="cls-5">
        <path class="cls-2" d="m475.09,75.27l-42.96,99.25h-22.69l-42.82-99.25h24.81l30.2,70.9,30.63-70.9h22.83Z"/>
        <path class="cls-2" d="m484.3,84.06c-2.55-2.36-3.83-5.29-3.83-8.79s1.28-6.43,3.83-8.79c2.55-2.36,5.86-3.54,9.93-3.54s7.37,1.13,9.93,3.4,3.83,5.1,3.83,8.51c0,3.69-1.28,6.74-3.83,9.15-2.55,2.41-5.86,3.62-9.93,3.62s-7.37-1.18-9.93-3.54Zm-1.13,14.18h22.12v76.28h-22.12v-76.28Z"/>
        <path class="cls-2" d="m590.29,102c5.81,3.26,10.37,7.85,13.68,13.75,3.31,5.91,4.96,12.79,4.96,20.63s-1.66,14.72-4.96,20.63c-3.31,5.91-7.87,10.49-13.68,13.75-5.81,3.26-12.27,4.89-19.35,4.89-10.49,0-18.48-3.31-23.96-9.93v8.79h-21.13v-105.21h22.12v37.01c5.58-6.14,13.23-9.22,22.97-9.22,7.09,0,13.54,1.63,19.35,4.89Zm-9.22,49.77c3.64-3.83,5.46-8.96,5.46-15.38s-1.82-11.56-5.46-15.38c-3.64-3.83-8.29-5.74-13.97-5.74s-10.33,1.91-13.97,5.74c-3.64,3.83-5.46,8.96-5.46,15.38s1.82,11.56,5.46,15.38c3.64,3.83,8.29,5.74,13.97,5.74s10.33-1.92,13.97-5.74Z"/>
        <path class="cls-2" d="m697.98,142.62h-57.71c1.04,4.73,3.5,8.46,7.37,11.2,3.88,2.74,8.7,4.11,14.46,4.11,3.97,0,7.49-.59,10.56-1.77,3.07-1.18,5.93-3.05,8.58-5.6l11.77,12.76c-7.19,8.22-17.68,12.34-31.48,12.34-8.6,0-16.21-1.68-22.83-5.03-6.62-3.35-11.72-8.01-15.31-13.97-3.59-5.95-5.39-12.71-5.39-20.28s1.77-14.2,5.32-20.21c3.54-6,8.41-10.68,14.6-14.04,6.19-3.35,13.12-5.03,20.77-5.03s14.23,1.61,20.28,4.82c6.05,3.21,10.8,7.82,14.25,13.82,3.45,6,5.17,12.97,5.17,20.92,0,.28-.14,2.27-.42,5.96Zm-51.75-24.53c-3.4,2.84-5.48,6.71-6.24,11.63h37.58c-.76-4.82-2.83-8.67-6.24-11.56-3.4-2.88-7.56-4.33-12.48-4.33s-9.22,1.42-12.62,4.25Z"/>
        <path class="cls-2" d="m713.15,69.31h22.12v105.21h-22.12v-105.21Z"/>
        <path class="cls-2" d="m831.55,98.24l-34.46,80.96c-3.5,8.79-7.82,14.98-12.97,18.58-5.15,3.59-11.37,5.39-18.65,5.39-3.97,0-7.89-.62-11.77-1.84-3.88-1.23-7.04-2.93-9.5-5.1l8.08-15.74c1.7,1.51,3.66,2.69,5.88,3.54,2.22.85,4.42,1.28,6.59,1.28,3.02,0,5.48-.73,7.37-2.2,1.89-1.47,3.59-3.9,5.1-7.3l.28-.71-33.04-76.85h22.83l21.41,51.75,21.55-51.75h21.27Z"/>
      </g>
      <g class="cls-5">
        <path class="cls-2" d="m874.25,84.81h-32.69v-5.97h71.99v5.97h-32.69v84.83h-6.62v-84.83Z"/>
        <path class="cls-2" d="m977.23,137.34h-58.24c.17,5.28,1.51,9.97,4.02,14.07,2.51,4.11,5.9,7.28,10.18,9.53,4.28,2.25,9.1,3.37,14.46,3.37,4.41,0,8.5-.8,12.26-2.4,3.76-1.6,6.89-3.96,9.4-7.07l3.76,4.28c-2.94,3.55-6.64,6.27-11.09,8.17-4.45,1.9-9.27,2.85-14.46,2.85-6.75,0-12.76-1.47-18.03-4.41-5.28-2.94-9.4-7-12.39-12.19-2.98-5.19-4.47-11.11-4.47-17.77s1.4-12.47,4.22-17.71c2.81-5.23,6.68-9.32,11.61-12.26,4.93-2.94,10.46-4.41,16.6-4.41s11.65,1.45,16.54,4.35c4.88,2.9,8.73,6.94,11.54,12.13,2.81,5.19,4.21,11.07,4.21,17.64l-.13,1.82Zm-45.01-27.04c-3.81,2.12-6.85,5.1-9.14,8.95-2.29,3.85-3.61,8.19-3.96,13.04h51.88c-.26-4.84-1.56-9.17-3.89-12.97-2.33-3.8-5.41-6.79-9.21-8.95-3.81-2.16-8.09-3.24-12.84-3.24s-9.04,1.06-12.84,3.18Z"/>
        <path class="cls-2" d="m999.08,165.74c-5.19-2.94-9.25-7.02-12.19-12.26-2.94-5.23-4.41-11.13-4.41-17.71s1.47-12.6,4.41-17.83c2.94-5.23,7-9.29,12.19-12.19,5.19-2.9,11.07-4.35,17.64-4.35,5.45,0,10.4,1.06,14.85,3.18,4.45,2.12,8.06,5.21,10.83,9.27l-4.8,3.5c-2.42-3.37-5.43-5.9-9.01-7.59-3.59-1.69-7.55-2.53-11.87-2.53-5.28,0-10.01,1.19-14.2,3.57-4.2,2.38-7.48,5.73-9.86,10.05-2.38,4.32-3.57,9.3-3.57,14.92s1.19,10.59,3.57,14.92c2.38,4.32,5.66,7.67,9.86,10.05,4.19,2.38,8.93,3.57,14.2,3.57,4.32,0,8.28-.84,11.87-2.53,3.59-1.69,6.59-4.21,9.01-7.59l4.8,3.5c-2.77,4.07-6.38,7.16-10.83,9.27-4.46,2.12-9.4,3.18-14.85,3.18-6.57,0-12.45-1.47-17.64-4.41Z"/>
        <path class="cls-2" d="m1102.78,108.8c4.93,4.93,7.39,12.02,7.39,21.27v39.56h-6.49v-39.04c0-7.61-1.92-13.4-5.77-17.38-3.85-3.98-9.23-5.97-16.15-5.97-7.96,0-14.23,2.38-18.81,7.13-4.58,4.76-6.88,11.16-6.88,19.2v36.06h-6.49v-96.24h6.49v42.67c2.33-4.67,5.79-8.28,10.38-10.83,4.58-2.55,9.99-3.83,16.21-3.83,8.47,0,15.18,2.46,20.11,7.39Z"/>
      </g>
    </g>
    <g>
      <g class="cls-5">
        <path class="cls-2" d="m511.42,218.65h9.76c2.45,0,4.62.49,6.52,1.46,1.9.97,3.37,2.33,4.42,4.09,1.05,1.75,1.57,3.77,1.57,6.04s-.52,4.28-1.57,6.04c-1.05,1.75-2.52,3.12-4.42,4.09-1.9.97-4.07,1.46-6.52,1.46h-9.76v-23.16Zm9.56,20.28c1.87,0,3.52-.36,4.95-1.09s2.52-1.75,3.29-3.06c.77-1.31,1.16-2.83,1.16-4.55s-.39-3.24-1.16-4.55c-.77-1.31-1.87-2.33-3.29-3.06-1.42-.73-3.07-1.09-4.95-1.09h-6.25v17.4h6.25Z"/>
        <path class="cls-2" d="m551.98,218.65h3.31v23.16h-3.31v-23.16Z"/>
        <path class="cls-2" d="m591.51,230.09h3.18v9.03c-1.15.95-2.48,1.68-4,2.18-1.52.51-3.11.76-4.76.76-2.34,0-4.44-.51-6.32-1.54-1.87-1.03-3.35-2.44-4.42-4.23-1.07-1.8-1.6-3.82-1.6-6.07s.54-4.28,1.6-6.09,2.55-3.22,4.43-4.23c1.89-1.01,4.01-1.52,6.37-1.52,1.85,0,3.53.3,5.04.91,1.51.61,2.8,1.49,3.85,2.66l-2.05,2.05c-1.85-1.79-4.09-2.68-6.71-2.68-1.76,0-3.35.38-4.75,1.14-1.4.76-2.5,1.82-3.29,3.18s-1.19,2.88-1.19,4.58.4,3.19,1.19,4.55c.79,1.36,1.89,2.42,3.29,3.19,1.4.77,2.97,1.16,4.71,1.16,2.07,0,3.88-.5,5.42-1.49v-7.54Z"/>
        <path class="cls-2" d="m614.24,218.65h3.31v23.16h-3.31v-23.16Z"/>
        <path class="cls-2" d="m642.32,221.52h-7.94v-2.88h19.15v2.88h-7.94v20.28h-3.28v-20.28Z"/>
        <path class="cls-2" d="m683.97,236.01h-12.31l-2.55,5.79h-3.41l10.49-23.16h3.28l10.52,23.16h-3.47l-2.55-5.79Zm-1.16-2.65l-5-11.35-5,11.35h9.99Z"/>
        <path class="cls-2" d="m706.66,218.65h3.31v20.28h12.54v2.88h-15.85v-23.16Z"/>
        <path class="cls-2" d="m776.43,236.01h-12.31l-2.55,5.79h-3.41l10.49-23.16h3.28l10.52,23.16h-3.47l-2.55-5.79Zm-1.16-2.65l-5-11.35-5,11.35h9.99Z"/>
        <path class="cls-2" d="m814.84,230.09h3.18v9.03c-1.15.95-2.48,1.68-4,2.18-1.52.51-3.11.76-4.76.76-2.34,0-4.44-.51-6.32-1.54-1.87-1.03-3.35-2.44-4.42-4.23-1.07-1.8-1.6-3.82-1.6-6.07s.54-4.28,1.6-6.09,2.55-3.22,4.43-4.23c1.89-1.01,4.01-1.52,6.37-1.52,1.85,0,3.53.3,5.04.91,1.51.61,2.8,1.49,3.85,2.66l-2.05,2.05c-1.85-1.79-4.09-2.68-6.71-2.68-1.76,0-3.35.38-4.75,1.14-1.4.76-2.5,1.82-3.29,3.18s-1.19,2.88-1.19,4.58.4,3.19,1.19,4.55c.79,1.36,1.89,2.42,3.29,3.19,1.4.77,2.97,1.16,4.71,1.16,2.07,0,3.88-.5,5.42-1.49v-7.54Z"/>
        <path class="cls-2" d="m854.37,238.93v2.88h-16.8v-23.16h16.34v2.88h-13.03v7.11h11.61v2.81h-11.61v7.48h13.5Z"/>
        <path class="cls-2" d="m892.87,218.65v23.16h-2.71l-13.89-17.27v17.27h-3.31v-23.16h2.71l13.89,17.27v-17.27h3.31Z"/>
        <path class="cls-2" d="m917.14,240.53c-1.86-1.03-3.32-2.44-4.38-4.23-1.06-1.8-1.59-3.82-1.59-6.07s.53-4.27,1.59-6.07c1.06-1.8,2.52-3.21,4.4-4.23,1.87-1.03,3.97-1.54,6.29-1.54,1.81,0,3.46.3,4.96.91,1.5.61,2.78,1.51,3.84,2.7l-2.15,2.08c-1.74-1.83-3.92-2.75-6.52-2.75-1.72,0-3.28.39-4.67,1.16-1.39.77-2.48,1.84-3.26,3.19-.78,1.36-1.17,2.87-1.17,4.55s.39,3.19,1.17,4.55c.78,1.36,1.87,2.42,3.26,3.19,1.39.77,2.94,1.16,4.67,1.16,2.58,0,4.75-.93,6.52-2.78l2.15,2.08c-1.06,1.19-2.34,2.1-3.85,2.71s-3.17.93-4.98.93c-2.32,0-4.41-.51-6.27-1.54Z"/>
        <path class="cls-2" d="m958.67,233.8v8.01h-3.27v-8.07l-9.2-15.08h3.54l7.41,12.21,7.44-12.21h3.28l-9.2,15.15Z"/>
      </g>
      <rect class="cls-2" x="401.34" y="230.33" width="72.52" height="2.5"/>
      <rect class="cls-2" x="1002.93" y="230.33" width="72.52" height="2.5"/>
    </g>
  </g>
</svg>